<?xml version="1.0" encoding="UTF-8"?>
<!-- Generated by Pixelmator Pro 3.6.5 -->
<svg width="107" height="24" viewBox="0 0 107 24" xmlns="http://www.w3.org/2000/svg">
    <clipPath id="clipPath1">
        <path d="M 0 0 L 24 0 L 24 24 L 3 24 C 1.34315 24 0 22.6569 0 21 L 0 0 Z"/>
    </clipPath>
    <g id="Group" clip-path="url(#clipPath1)">
        <path id="Path" fill="#1ae6af" stroke="none" d="M 12 12 L 0 12 L 0 0 C 6.6269 0 12 5.3731 12 12 Z"/>
        <path id="path1" fill="#1ae6af" stroke="none" d="M 12 12 L 0 12 L 0 24 L 12 24 L 12 12 Z"/>
        <path id="path2" fill="#03a2f4" stroke="none" d="M 24 24 L 12 24 L 12 12 C 18.6269 12 24 17.3731 24 24 Z"/>
    </g>
    <path id="path3" fill="#1e1e1e" stroke="none" visibility="hidden" d="M 31.296 5.931999 L 33.647999 5.931999 L 33.647999 15.524 L 38.672001 15.524 L 38.672001 17.5 L 31.296 17.5 L 31.296 5.931999 Z M 42.586399 9.228 L 42.586399 17.5 L 40.354401 17.5 L 40.354401 9.228 L 42.586399 9.228 Z M 42.610401 5.940001 L 42.610401 8.044 L 40.338402 8.044 L 40.338402 5.940001 L 42.610401 5.940001 Z M 48.472599 20.236 C 47.000599 20.236 45.8806 20.049299 45.112598 19.676001 C 44.349998 19.3027 43.968601 18.812 43.968601 18.204 C 43.968601 17.921301 44.043301 17.684 44.1926 17.492001 C 44.341999 17.299999 44.515301 17.148001 44.712601 17.035999 C 44.915298 16.918699 45.0993 16.8307 45.264599 16.771999 C 45.435299 16.708 45.539299 16.6653 45.576599 16.643999 C 45.491299 16.596001 45.368599 16.526699 45.208599 16.436001 C 45.048599 16.34 44.8993 16.212 44.760601 16.052 C 44.6273 15.8867 44.5606 15.6733 44.5606 15.412 C 44.5606 15.1187 44.699299 14.8467 44.976601 14.596 C 45.2593 14.3453 45.686001 14.172 46.256599 14.076 C 45.712601 13.82 45.299301 13.4733 45.016602 13.036 C 44.734001 12.5987 44.592602 12.1507 44.592602 11.692 C 44.592602 11.148 44.763302 10.6813 45.104599 10.292 C 45.445999 9.90267 45.91 9.60667 46.496601 9.404 C 47.0886 9.20133 47.757999 9.1 48.504601 9.1 C 49.075298 9.1 49.542 9.16133 49.904598 9.284 C 50.2673 9.40133 50.603298 9.556 50.912601 9.748 C 51.035301 9.7 51.198002 9.63867 51.4006 9.564 C 51.603298 9.484 51.821999 9.39867 52.056599 9.308 C 52.291302 9.212 52.520599 9.11867 52.744598 9.028 C 52.968601 8.932 53.168598 8.84667 53.344601 8.772 L 53.336601 10.58 L 51.904598 10.812 C 51.963299 10.956 52.008598 11.1107 52.0406 11.276 C 52.072601 11.4413 52.0886 11.5773 52.0886 11.684 C 52.0886 12.164 51.9473 12.612 51.6646 13.028 C 51.387299 13.444 50.968601 13.78 50.4086 14.036 C 49.854 14.292 49.166 14.42 48.344601 14.42 C 48.243301 14.42 48.1073 14.4173 47.9366 14.412 C 47.771301 14.4067 47.6353 14.3987 47.528599 14.388 C 47.214001 14.404 46.998001 14.444 46.8806 14.508 C 46.763302 14.572 46.704601 14.6467 46.704601 14.732 C 46.704601 14.86 46.8246 14.9453 47.064602 14.988 C 47.3046 15.0253 47.667301 15.06 48.152599 15.092 C 48.323299 15.1027 48.5606 15.116 48.864601 15.132 C 49.168598 15.148 49.504601 15.1693 49.872601 15.196 C 50.886002 15.2653 51.640598 15.516 52.1366 15.948 C 52.638 16.374701 52.888599 16.9133 52.888599 17.563999 C 52.888599 18.337299 52.520599 18.974701 51.784599 19.476 C 51.054001 19.9827 49.950001 20.236 48.472599 20.236 Z M 48.848598 18.931999 C 49.499298 18.931999 49.963299 18.851999 50.240601 18.691999 C 50.518002 18.532 50.656601 18.3027 50.656601 18.004 C 50.656601 17.7533 50.549999 17.550699 50.336601 17.396 C 50.123299 17.236 49.811298 17.1427 49.4006 17.115999 L 47.504601 16.988001 C 47.2593 16.977301 47.0406 17.0147 46.848598 17.1 C 46.661999 17.185301 46.515301 17.3027 46.4086 17.452 C 46.307301 17.601299 46.256599 17.761299 46.256599 17.931999 C 46.256599 18.2787 46.4673 18.532 46.888599 18.691999 C 47.310001 18.851999 47.963299 18.931999 48.848598 18.931999 Z M 48.4086 13.116 C 48.851299 13.116 49.206001 12.996 49.472599 12.756 C 49.744598 12.5107 49.8806 12.18 49.8806 11.764 C 49.8806 11.332 49.744598 10.9853 49.472599 10.724 C 49.206001 10.4627 48.851299 10.332 48.4086 10.332 C 47.971298 10.332 47.613998 10.4627 47.336601 10.724 C 47.064602 10.9853 46.9286 11.332 46.9286 11.764 C 46.9286 12.1747 47.059299 12.5027 47.320599 12.748 C 47.587299 12.9933 47.950001 13.116 48.4086 13.116 Z M 54.6875 17.5 L 54.6875 5.612 L 57.0075 5.612 L 57.0075 10.42 C 57.1408 10.228 57.3088 10.0387 57.511501 9.852 C 57.714199 9.66 57.967499 9.5 58.2715 9.372 C 58.5755 9.244 58.946201 9.18 59.383499 9.18 C 59.911499 9.18 60.391499 9.284 60.823502 9.492 C 61.260799 9.69467 61.610199 9.99067 61.871498 10.38 C 62.138199 10.7693 62.2715 11.244 62.2715 11.804 L 62.2715 17.5 L 59.927502 17.5 L 59.927502 12.148 C 59.927502 11.7747 59.7915 11.4893 59.519501 11.292 C 59.2528 11.0893 58.927502 10.988 58.543499 10.988 C 58.292801 10.988 58.050201 11.0333 57.815498 11.124 C 57.580799 11.2147 57.388802 11.3533 57.239498 11.54 C 57.095501 11.7213 57.023499 11.948 57.023499 12.22 L 57.023499 17.5 L 54.6875 17.5 Z M 68.852501 10.852 L 67.012497 10.852 L 67.028503 15.26 C 67.028503 15.4627 67.052498 15.6147 67.100502 15.716 C 67.153801 15.812 67.233803 15.876 67.3405 15.908 C 67.452499 15.9347 67.593803 15.948 67.764503 15.948 L 68.876503 15.948 L 68.876503 17.388 C 68.769798 17.436001 68.601799 17.4813 68.372498 17.524 C 68.148499 17.5667 67.833801 17.587999 67.428497 17.587999 C 66.703201 17.587999 66.140503 17.494699 65.740501 17.308001 C 65.345802 17.1213 65.071198 16.860001 64.916496 16.524 C 64.761803 16.188 64.684502 15.7987 64.684502 15.356 L 64.684502 10.852 L 63.3405 10.852 L 63.3405 9.228 L 64.764503 9.228 L 65.348503 6.732 L 67.012497 6.732 L 67.012497 9.22 L 68.852501 9.22 L 68.852501 10.852 Z M 76.368797 17.66 C 75.840797 17.66 75.366096 17.5613 74.944801 17.364 C 74.523399 17.1667 74.190102 16.8813 73.944801 16.507999 C 73.699402 16.129299 73.576797 15.6707 73.576797 15.132 C 73.576797 14.2253 73.915398 13.5373 74.592796 13.068 C 75.270103 12.5933 76.339401 12.348 77.800797 12.332 L 78.832802 12.316 L 78.832802 11.82 C 78.832802 11.4413 78.720802 11.1507 78.496803 10.948 C 78.278099 10.74 77.936798 10.6387 77.472801 10.644 C 77.131401 10.6493 76.806099 10.7293 76.496803 10.884 C 76.192802 11.0387 75.984802 11.308 75.872803 11.692 L 73.928802 11.692 C 73.9608 11.0947 74.134102 10.604 74.448799 10.22 C 74.763397 9.83067 75.190102 9.54267 75.728798 9.356 C 76.272797 9.164 76.888802 9.068 77.576797 9.068 C 78.424797 9.068 79.104797 9.17467 79.616798 9.388 C 80.128799 9.596 80.499397 9.89733 80.728798 10.292 C 80.958099 10.6813 81.0728 11.1453 81.0728 11.684 L 81.0728 17.5 L 79.120796 17.5 L 78.928802 16.076 C 78.646103 16.6733 78.291397 17.0867 77.864799 17.316 C 77.443398 17.5453 76.944801 17.66 76.368797 17.66 Z M 77.152802 16.124001 C 77.366096 16.124001 77.571404 16.0867 77.768799 16.011999 C 77.971397 15.932 78.150101 15.828 78.304802 15.7 C 78.464798 15.5667 78.592796 15.4173 78.688797 15.252 C 78.784798 15.0867 78.832802 14.916 78.832802 14.74 L 78.832802 13.516 L 77.992798 13.532 C 77.603401 13.5373 77.240799 13.5853 76.9048 13.676 C 76.568802 13.7613 76.296799 13.9027 76.088799 14.1 C 75.886101 14.2973 75.784798 14.564 75.784798 14.9 C 75.784798 15.284 75.918098 15.5853 76.184799 15.804 C 76.451401 16.0173 76.774101 16.124001 77.152802 16.124001 Z M 87.748596 17.66 C 87.337997 17.66 86.983299 17.606701 86.684601 17.5 C 86.386002 17.393299 86.132599 17.252001 85.924599 17.076 C 85.716599 16.894699 85.545998 16.6947 85.412598 16.476 C 85.279297 16.257299 85.175301 16.0333 85.100601 15.804 L 84.836601 17.5 L 83.140602 17.5 L 83.140602 5.612 L 85.484596 5.612 L 85.484596 10.348 C 85.585999 10.172 85.716599 10.0067 85.876602 9.852 C 86.036598 9.69733 86.223297 9.56133 86.4366 9.444 C 86.650002 9.32667 86.884598 9.236 87.140602 9.172 C 87.402 9.10267 87.679298 9.068 87.972603 9.068 C 89.001999 9.068 89.807297 9.43867 90.388603 10.18 C 90.975304 10.9213 91.2686 11.9667 91.2686 13.316 C 91.2686 14.1907 91.1353 14.9533 90.868599 15.604 C 90.601997 16.2547 90.207298 16.761299 89.684601 17.124001 C 89.162003 17.4813 88.516602 17.66 87.748596 17.66 Z M 87.236603 15.98 C 87.737999 15.98 88.153999 15.7747 88.484596 15.364 C 88.820602 14.948 88.988602 14.2547 88.988602 13.284 C 88.988602 12.4253 88.828598 11.7907 88.508598 11.38 C 88.194 10.9693 87.764603 10.764 87.220596 10.764 C 86.831299 10.764 86.508598 10.8573 86.252602 11.044 C 85.996597 11.2253 85.804604 11.5027 85.676598 11.876 C 85.554001 12.2493 85.489998 12.7187 85.484596 13.284 C 85.484596 14.26 85.628601 14.9533 85.916603 15.364 C 86.209999 15.7747 86.650002 15.98 87.236603 15.98 Z M 95.468102 17.643999 C 94.8601 17.643999 94.377502 17.572001 94.020103 17.427999 C 93.662804 17.284 93.398804 17.0947 93.228104 16.860001 C 93.057503 16.620001 92.948097 16.356001 92.900101 16.068001 C 92.852097 15.7747 92.828102 15.4787 92.828102 15.18 L 92.828102 5.612 L 95.116096 5.612 L 95.116096 14.892 C 95.116096 15.196 95.180099 15.444 95.308098 15.636 C 95.441498 15.8227 95.689499 15.9373 96.052101 15.98 L 96.444099 16.004 L 96.444099 17.444 C 96.284103 17.497299 96.121498 17.5427 95.9561 17.58 C 95.790802 17.6227 95.628098 17.643999 95.468102 17.643999 Z M 99.857498 13.9 C 99.852203 14.3213 99.9188 14.6893 100.057999 15.004 C 100.195999 15.3133 100.396004 15.5533 100.657997 15.724 C 100.924004 15.8893 101.244003 15.972 101.617996 15.972 C 102.017998 15.972 102.366997 15.8867 102.666 15.716 C 102.970001 15.5453 103.18 15.2653 103.297997 14.876 L 105.402 14.876 C 105.310997 15.4627 105.075996 15.964 104.697998 16.379999 C 104.323997 16.796 103.871002 17.1133 103.337997 17.332001 C 102.804001 17.550699 102.25 17.66 101.674004 17.66 C 100.858002 17.66 100.138 17.4893 99.513496 17.148001 C 98.894798 16.8013 98.412201 16.313299 98.065498 15.684 C 97.718803 15.0547 97.545502 14.3133 97.545502 13.46 C 97.545502 12.6333 97.702797 11.8893 98.017502 11.228 C 98.332199 10.5613 98.7882 10.036 99.385498 9.652 C 99.988197 9.26267 100.710999 9.068 101.554001 9.068 C 102.396004 9.068 103.102997 9.24667 103.674004 9.604 C 104.25 9.956 104.681999 10.4493 104.970001 11.084 C 105.263 11.7133 105.410004 12.4413 105.410004 13.268 L 105.410004 13.9 L 99.857498 13.9 Z M 99.849503 12.508 L 103.225998 12.508 C 103.225998 12.1773 103.164001 11.8733 103.042 11.596 C 102.918999 11.3187 102.732002 11.1 102.482002 10.94 C 102.236 10.78 101.927002 10.7 101.554001 10.7 C 101.191002 10.7 100.882004 10.788 100.625999 10.964 C 100.375 11.1347 100.182999 11.3587 100.050003 11.636 C 99.916199 11.9133 99.849503 12.204 99.849503 12.508 Z"/>
    <text id="LinguAI" xml:space="preserve" x="32" y="20" font-family="Helvetica" font-size="18" font-weight="700" fill="#202020">LinguAI</text>
</svg>
